<?xml version="1.0" encoding="utf-8"?>
<!-- Generator: Adobe Illustrator 19.2.1, SVG Export Plug-In . SVG Version: 6.00 Build 0)  -->
<svg version="1.1" id="layer" xmlns="http://www.w3.org/2000/svg" xmlns:xlink="http://www.w3.org/1999/xlink" x="0px" y="0px"
	 viewBox="0 0 652 652" style="enable-background:new 0 0 652 652;" xml:space="preserve">
<style type="text/css">
	.st0{fill:#651D32;}
	.st1{fill-rule:evenodd;clip-rule:evenodd;fill:#FFFFFF;}
</style>
<g>
	<path class="st0" d="M64.2,569.8c-0.5-4-0.8-9-0.8-17.2c-6.5,11.4-17.4,18.1-29.8,18.1c-10.7,0-18.9-5.2-22.2-14
		C9.7,552.1,9,545.2,9,530.6V503c0-8.7-0.7-12.2-2.5-13.7c-1-1-2.5-1.3-5.7-1.5h-3v-3.7l25.9-1.7c-0.8,15.6-1,19.6-1,31.1v14.5
		c0,16.9,0.4,21.4,2.3,27.3c2,6.2,6.7,9.4,13.5,9.4c9.2,0,17.4-6,21.7-16.2c2.5-5.7,3-9.4,3-19.7V503c0-8.9-0.5-12-2.5-13.5
		c-1-1-2.7-1.5-5.7-1.7h-3v-3.7l25.9-1.7c-0.5,12.6-0.8,23.6-0.8,31.1v31.6c0,16.7,1.5,19.8,10.2,19.8h1.2v3.7L64.2,569.8z"/>
	<path class="st0" d="M130.8,464.1c10-12.5,24.6-19.1,42.7-19.1c18.2,0,32.4,6.4,42.6,19.1c9.2,11.7,13.9,26.3,13.9,43.8
		c0,17.6-4.7,32.3-13.9,43.6c-10.4,12.9-24.4,19.2-42.6,19.2c-18.1,0-32.8-6.7-42.7-19.2c-9.2-11.7-13.9-26.3-13.9-43.6
		C116.9,490.4,121.4,476,130.8,464.1 M142.8,548c6.7,11.9,17.2,18.2,30.6,18.2c13.4,0,23.9-6.3,30.6-18.2c6-10.9,9-23.9,9-40.1
		c0-16.2-3-29.3-9-40.2c-6.7-12-17.2-18.2-30.6-18.2c-13.4,0-23.9,6.4-30.6,18.2c-6,11-9,24.2-9,40.2
		C133.8,523.8,136.8,536.8,142.8,548"/>
	<path class="st0" d="M267.9,544.9c0,9.9,0.5,14.2,2.2,16.6c1.7,2.4,4.4,3.5,8.2,3.5c3.7,0,6.9-0.9,10.5-3l1.5,4.3
		c-5.5,2.8-10.9,4.2-16.9,4.2c-8.2,0-14.4-2.9-17.2-8.2c-1.8-3.3-2.3-7-2.3-19.4v-54.1h-10.5v-3.9c9.9-0.9,14.9-7.4,17.4-23.1
		l7.7-2.2c-0.3,7.2-0.5,13.5-0.5,24.6H288v4.5h-20.1V544.9z"/>
	<path class="st0" d="M323.1,544.9c0,9.9,0.5,14.2,2.2,16.6c1.7,2.4,4.4,3.5,8.2,3.5c3.7,0,6.9-0.9,10.5-3l1.5,4.3
		c-5.5,2.8-10.9,4.2-16.9,4.2c-8.2,0-14.4-2.9-17.2-8.2c-1.8-3.3-2.3-7-2.3-19.4v-54.1h-10.5v-3.9c9.9-0.9,14.9-7.4,17.4-23.1
		l7.7-2.2c-0.3,7.2-0.5,13.5-0.5,24.6h20.1v4.5h-20.1V544.9z"/>
	<path class="st0" d="M434.8,568.3c-6.5,1-13.9,1.7-17.2,1.7c-5,0-6.3-2.7-7-13.9c-2.7,3-4.9,4.8-8.2,7.2
		c-7.4,5.3-13.2,7.2-21.7,7.2c-7.4,0-12.9-1.7-17-5.2c-4.5-4-7.4-10.7-7.4-17.7c0-13.2,8.4-21.7,24.6-25.4c8.7-2,17.6-3.2,29.8-4
		v-10.5c0-7.7-0.7-11.7-2.3-15.2c-2.2-4.3-6.8-6.5-13.7-6.5c-11,0-16.7,5-17.4,15.4c-0.2,3.5-0.5,4.7-1.8,5.7
		c-1.2,0.8-3.3,1.3-5.9,1.3c-5.7,0-8.2-1.5-8.2-5c0-6,4.3-12.1,11.4-16c6.4-3.5,14.6-5.3,24.4-5.3c10.7,0,18.4,2.5,22.4,7.3
		c3.3,4.2,4.9,9.7,4.9,18.9c0,0.5,0,0.5-0.4,16.9l-0.2,15.9l-0.2,7.7c0,7,0.8,13.1,1.8,14.4c1,1.3,3,1.8,9.4,1.8V568.3z
		 M410.5,521.9c-14.9,1.3-21.4,2.7-28.1,6c-7.4,3.5-11.2,10.2-11.2,19.1c0,10.5,5.7,17.7,14,17.7c8.5,0,17.2-5,21.4-12.2
		c2.7-4.7,3.9-11.7,3.9-22.8V521.9z"/>
	<path class="st0" d="M476.6,569.3h-8.7l-20.7-69.4c-2.8-9.5-4.8-11.5-13-12v-3.7h37.1v3.7c-8,0.3-11.2,2-11.2,6.2
		c0,1.3,0.5,3.9,1.5,7.4l15,52.5l22.1-67.6h6.9l21.2,67.6l14.5-49.2c1.3-4.2,2-7.4,2-9.7c0-2.8-1.7-5-4.7-6c-2-0.7-3.2-0.8-7.5-1.2
		v-3.7h32.8v3.7c-9.2,0.5-12.4,3.7-16.4,16.6l-20.2,64.9h-8.5l-20.9-64.2L476.6,569.3z"/>
	<path class="st0" d="M643.5,568.3c-6.5,1-13.9,1.7-17.2,1.7c-5,0-6.4-2.7-7-13.9c-2.7,3-4.9,4.8-8.2,7.2
		c-7.4,5.3-13.2,7.2-21.7,7.2c-7.4,0-12.9-1.7-17.1-5.2c-4.5-4-7.4-10.7-7.4-17.7c0-13.2,8.4-21.7,24.6-25.4c8.7-2,17.6-3.2,29.8-4
		v-10.5c0-7.7-0.7-11.7-2.3-15.2c-2.2-4.3-6.9-6.5-13.7-6.5c-11,0-16.7,5-17.4,15.4c-0.2,3.5-0.5,4.7-1.8,5.7
		c-1.2,0.8-3.3,1.3-5.8,1.3c-5.7,0-8.2-1.5-8.2-5c0-6,4.3-12.1,11.4-16c6.4-3.5,14.5-5.3,24.4-5.3c10.7,0,18.4,2.5,22.4,7.3
		c3.3,4.2,4.9,9.7,4.9,18.9c0,0.5,0,0.5-0.4,16.9l-0.2,15.9l-0.2,7.7c0,7,0.8,13.1,1.8,14.4c1,1.3,3,1.8,9.4,1.8V568.3z
		 M619.2,521.9c-14.9,1.3-21.4,2.7-28.1,6c-7.4,3.5-11.2,10.2-11.2,19.1c0,10.5,5.7,17.7,14,17.7c8.5,0,17.2-5,21.4-12.2
		c2.7-4.7,3.9-11.7,3.9-22.8V521.9z"/>
	<path class="st0" d="M245.5,82.8c24,0.3,46.6-2.5,68.8,3c14.9,3.7,10.8,37.6,46.6,43.1c24.6,3.7,49.6,4.3,67.2,21.6
		c6.9,6.8,8.7,12.2,12.6,21.3c-10.8,0.4-18.4,11.4-18.4,11.4c31.5-11.3,71.7-5.3,85.3,20.4c-25.6,21.7-38,53.9-32.8,87.1
		c1.8,11.7-19.4,11.8-28.7,18.6c-23.3,17-40.9,39.5-45.8,67.2c-7.7,6.6-20.4,6.8-31,9.1c-5.7,1.8-13.7,1.8-19.4,0
		c0.8-3.5,4.2-6,6.2-9.1l-6.2-9.1c16.3-16.9,39.8-29.7,44.2-53.9c0.9-4.7-2.9-9.8-7.5-10.8c-7.1-1.5-12.4,3.3-17.3,7.3
		c-6.9,5.6-8,17.4-4.4,25.9c-5.7,7-14,14.8-23,21.1c-3.1-5.3-8.6-4.3-11.9-8.6c-1.3-12.6,1-26.4,11.9-33.7
		c19.6-13.2,42.4-28.5,37.7-55.6c0-17.6-5.2-44,11.4-53.1c9.2-5.1,19.4-9.1,31-6.5c8.2,1.8,13.5,7.8,17.9,15.1
		c9.6,23.6-39.7,51.2,1.8,64l6.2,1.7c-7.5-6.8-7.8-16.8-5.4-27c5.4-23.4,14.6-41.8-9.3-55.2c-11.9-6.7-25.3-5.5-37.2-1.2
		c-13.9,5-21.5,15.7-22.5,31.5v13.4c-38.3-16.2-64.6,45.8-92.3,43.3c-18.4-1.7-24.8-24.2-28.7-39.3c-10.5,14.9-15,7.1-20.4,6.1
		c-20.2-8.6-40.6-16.1-59.5-27.7c-5.4-3.3-5.4-11.3-3.9-17.6c3.3-13.6,17.3-22.4,26.9-33.2c2.9-3.3,0-5.7-5.7-6.5
		c-24.7-3.7-59.5-5.9-75.6-28.5c-12.9-18.3-7.6-43.7-4-67.6c2.3,6.3,4.8,20.6,11.8,24.1c14.5,7.3,28.7,0.8,45.6,2.6
		c19.9-0.5,42.5-3.7,51.7,16.6c5.7,12.6,19.1,18.1,31.3,19.6h31.8l1.8-1.8l-3.1-2.5c-14.2-1.3-35.8,1.1-47.3-14.3
		c-8.9-12-9.3-27.9-9.8-43.6C227.6,79.3,236.7,83.1,245.5,82.8"/>
	<path class="st0" d="M424.5,96.7c29.5,5.9,49.6,15.8,61.9,41.7c6.4,13.5-1.8,22.8,6.5,39.2c-12.5-8.2-28.4-10.3-43.6-7.7
		c-8.6-24-19.2-35.5-43.4-42.6c-28.4-8.3-53.3,0.8-68.7-25.1c-6.2-10.4-4.8-31.5-4.8-31.5C350.1,103,391.7,90.1,424.5,96.7"/>
	<path class="st1" d="M262.9,152.4c-7.1-3-14.7-6.1-23.8-2.7c-6.1,2.3-10.4,6.9-14.1,10.9l-33.5,36.2c-5.5,5.9-9.6,10.9-6.4,16.8
		c2.5,4.5,7.5,6.5,12.2,8.5l39.8,16.5l39.1-42.2l-30.1-12.4l-13.4,14.6l7.3,3L228,214.5l-13.8-5.7L252,168l13.8,5.7l-5.4,5.8l21.8,9
		l18.8-20.4L262.9,152.4z"/>
	<path class="st1" d="M360.1,151.1c-7.1-2.9-14.6-6-23.8-2.7c-6.1,2.3-10.4,6.9-14,10.9l-33.5,36.2c-5.5,5.9-9.6,10.9-6.4,16.8
		c2.5,4.4,7.5,6.5,12.2,8.5l39.8,16.4l39.1-42.2l-30-12.4L330.1,197l7.3,3l-12.2,13.2l-13.8-5.7l37.8-40.9l13.8,5.7l-5.4,5.8l21.8,9
		l18.8-20.4L360.1,151.1z"/>
	<path class="st0" d="M478.7,95.1c20.3,5.3,30.3,1.8,43,14.6c25.3,49.1-8.4,36.4-8.4,81.7c-12.4-16.6-15-24.5-13.6-38.8
		c2.7-24.9-23-42-39.3-56.5c-6.1-8.2-4.9-20.4-4.4-25.4C458.4,75.8,466.6,92,478.7,95.1"/>
</g>
</svg>
